<?xml version="1.0" standalone="no"?><svg xmlns="http://www.w3.org/2000/svg" viewBox="0 0 1440 320"><path fill="#f5f5f5" fill-opacity="1" d="M0,256L34.3,256C68.6,256,137,256,206,240C274.3,224,343,192,411,165.3C480,139,549,117,617,138.7C685.7,160,754,224,823,245.3C891.4,267,960,245,1029,213.3C1097.1,181,1166,139,1234,128C1302.9,117,1371,139,1406,149.3L1440,160L1440,320L1405.7,320C1371.4,320,1303,320,1234,320C1165.7,320,1097,320,1029,320C960,320,891,320,823,320C754.3,320,686,320,617,320C548.6,320,480,320,411,320C342.9,320,274,320,206,320C137.1,320,69,320,34,320L0,320Z"></path></svg>