<?xml version="1.0" standalone="no"?><svg xmlns="http://www.w3.org/2000/svg" viewBox="0 0 1440 320"><path fill="#f5f5f5" fill-opacity="1" d="M0,224L34.3,197.3C68.6,171,137,117,206,128C274.3,139,343,213,411,234.7C480,256,549,224,617,208C685.7,192,754,192,823,176C891.4,160,960,128,1029,138.7C1097.1,149,1166,203,1234,192C1302.9,181,1371,107,1406,69.3L1440,32L1440,0L1405.7,0C1371.4,0,1303,0,1234,0C1165.7,0,1097,0,1029,0C960,0,891,0,823,0C754.3,0,686,0,617,0C548.6,0,480,0,411,0C342.9,0,274,0,206,0C137.1,0,69,0,34,0L0,0Z"></path></svg>