<?xml version="1.0" standalone="no"?><svg xmlns="http://www.w3.org/2000/svg" viewBox="0 0 1440 320"><path fill="#f5f5f5" fill-opacity="1" d="M0,160L34.3,138.7C68.6,117,137,75,206,64C274.3,53,343,75,411,80C480,85,549,75,617,80C685.7,85,754,107,823,144C891.4,181,960,235,1029,245.3C1097.1,256,1166,224,1234,197.3C1302.9,171,1371,149,1406,138.7L1440,128L1440,0L1405.7,0C1371.4,0,1303,0,1234,0C1165.7,0,1097,0,1029,0C960,0,891,0,823,0C754.3,0,686,0,617,0C548.6,0,480,0,411,0C342.9,0,274,0,206,0C137.1,0,69,0,34,0L0,0Z"></path></svg>